<?xml version="1.0" encoding="utf-8"?>
<!-- Generator: Adobe Illustrator 17.0.0, SVG Export Plug-In . SVG Version: 6.00 Build 0)  -->
<!DOCTYPE svg PUBLIC "-//W3C//DTD SVG 1.1//EN" "http://www.w3.org/Graphics/SVG/1.1/DTD/svg11.dtd">
<svg version="1.1" id="Layer_1" xmlns="http://www.w3.org/2000/svg" xmlns:xlink="http://www.w3.org/1999/xlink" x="0px" y="0px"
	 width="50px" height="50px" viewBox="0 0 50 50" enable-background="new 0 0 50 50" xml:space="preserve">
<g>
	<path fill="transparent" d="M0.102,50.098c0-16.66,0-33.32,0-49.99c16.652,0,33.308,0,49.98,0c0,16.657,0,33.323,0,49.99
		C33.431,50.098,16.768,50.098,0.102,50.098z M25.127,16.41c-2.181,0-4.361-0.006-6.542,0.002c-1.83,0.006-3.047,1.231-3.05,3.073
		c-0.006,3.857-0.003,7.713-0.001,11.57c0.001,1.861,1.223,3.105,3.077,3.107c4.345,0.006,8.69,0.005,13.035-0.002
		c1.766-0.003,3.019-1.254,3.022-3.009c0.006-3.905,0.005-7.811,0-11.716c-0.002-1.797-1.241-3.021-3.047-3.024
		C29.456,16.408,27.291,16.41,25.127,16.41z M5.381,3.662c0.303,0,0.464,0.001,0.625,0c3.711-0.017,7.421-0.034,11.132-0.053
		c0.194-0.001,0.395,0.002,0.581-0.045c0.617-0.158,1.006-0.75,0.92-1.37c-0.093-0.676-0.631-1.09-1.451-1.087
		c-4.931,0.02-9.862,0.043-14.794,0.07C1.557,1.181,1.079,1.682,1.082,2.531c0.019,4.085,0.038,8.17,0.059,12.255
		c0.005,0.928-0.002,1.856,0.029,2.783c0.02,0.602,0.479,1.059,1.077,1.148c0.531,0.079,1.147-0.277,1.309-0.807
		c0.079-0.257,0.079-0.545,0.079-0.819C3.629,13.395,3.616,9.701,3.607,6.006c0-0.15,0.016-0.301,0.024-0.451
		c0.04-0.02,0.08-0.041,0.12-0.061C4.555,6.32,5.349,7.155,6.165,7.969c2.406,2.404,4.827,4.793,7.229,7.201
		c0.562,0.563,1.33,0.654,1.863,0.157c0.541-0.505,0.511-1.334-0.063-1.903c-3.144-3.116-6.288-6.233-9.43-9.35
		C5.663,3.976,5.572,3.869,5.381,3.662z M44.798,3.656c-0.136,0.166-0.189,0.244-0.255,0.309c-3.189,3.162-6.377,6.325-9.572,9.481
		c-0.565,0.558-0.573,1.269,0.018,1.832c0.568,0.542,1.278,0.507,1.789-0.085c0.085-0.098,0.17-0.197,0.262-0.289
		c3.072-3.049,6.144-6.098,9.218-9.145c0.083-0.082,0.184-0.145,0.317-0.248c0,2.203,0.003,4.333-0.001,6.464
		c-0.003,1.822-0.021,3.645-0.015,5.467c0.002,0.692,0.455,1.186,1.105,1.277c0.529,0.074,1.117-0.284,1.292-0.831
		c0.072-0.226,0.076-0.479,0.077-0.72c0.028-4.833,0.05-9.665,0.076-14.498c0.006-1.042-0.434-1.493-1.463-1.498
		c-3.791-0.016-7.582-0.035-11.374-0.053c-1.139-0.005-2.278-0.021-3.417-0.009c-0.705,0.007-1.222,0.457-1.303,1.082
		c-0.081,0.623,0.305,1.214,0.919,1.372c0.185,0.048,0.387,0.044,0.581,0.045c3.628,0.017,7.257,0.032,10.886,0.047
		C44.192,3.657,44.445,3.656,44.798,3.656z M3.802,45.083c-0.061-0.04-0.122-0.08-0.182-0.12c0-1.084-0.004-2.168,0.001-3.252
		c0.012-2.814,0.035-5.629,0.04-8.443c0.002-0.861-0.534-1.436-1.272-1.419c-0.734,0.017-1.217,0.569-1.221,1.41
		c-0.028,4.945-0.056,9.891-0.081,14.836c-0.004,0.77,0.501,1.302,1.273,1.306c4.978,0.027,9.956,0.049,14.934,0.049
		c0.316,0,0.671-0.142,0.938-0.323c0.41-0.278,0.528-0.856,0.365-1.32c-0.185-0.526-0.631-0.834-1.242-0.838
		c-3.79-0.023-7.581-0.042-11.371-0.064c-0.164-0.001-0.327-0.016-0.49-0.025c-0.015-0.042-0.03-0.085-0.045-0.127
		c0.16-0.137,0.33-0.265,0.48-0.413c3.005-2.977,6.007-5.956,9.01-8.935c0.104-0.103,0.214-0.201,0.31-0.311
		c0.469-0.537,0.449-1.287-0.043-1.76c-0.516-0.497-1.269-0.479-1.792,0.041c-3.103,3.086-6.206,6.171-9.305,9.261
		C3.981,44.761,3.903,44.933,3.802,45.083z M44.793,46.725c-0.041,0.062-0.083,0.123-0.124,0.185c-0.194,0-0.388-0.001-0.581,0
		c-3.709,0.019-7.419,0.033-11.128,0.069c-0.308,0.003-0.652,0.088-0.915,0.244c-0.458,0.273-0.621,0.884-0.455,1.382
		c0.179,0.538,0.659,0.86,1.338,0.858c4.946-0.016,9.892-0.035,14.837-0.059c0.86-0.004,1.345-0.522,1.34-1.386
		c-0.019-2.945-0.037-5.889-0.052-8.834c-0.01-2.001-0.013-4.002-0.026-6.003c-0.005-0.76-0.507-1.304-1.204-1.331
		c-0.686-0.026-1.238,0.507-1.289,1.254c-0.015,0.227-0.006,0.455-0.005,0.683c0.017,3.563,0.035,7.126,0.053,10.689
		c0.001,0.168,0,0.336,0,0.592c-0.162-0.131-0.241-0.185-0.307-0.25c-3.171-3.156-6.342-6.311-9.51-9.47
		c-0.434-0.433-1.003-0.497-1.498-0.143c-0.819,0.587-0.885,1.335-0.166,2.049c3.024,3.004,6.051,6.005,9.082,9.002
		C44.366,46.435,44.589,46.57,44.793,46.725z"/>
	<path fill="#ffffff" d="M25.127,16.41c2.164,0,4.329-0.003,6.493,0.001c1.806,0.003,3.044,1.227,3.047,3.024c0.005,3.905,0.005,7.811,0,11.716
		c-0.003,1.756-1.256,3.006-3.022,3.009c-4.345,0.007-8.69,0.008-13.035,0.002c-1.854-0.003-3.076-1.247-3.077-3.107
		c-0.001-3.857-0.005-7.713,0.001-11.57c0.003-1.842,1.22-3.067,3.05-3.073C20.766,16.404,22.946,16.41,25.127,16.41z"/>
	<path fill="#ffffff" d="M5.381,3.662c0.191,0.207,0.282,0.314,0.381,0.412c3.143,3.117,6.286,6.234,9.43,9.35c0.575,0.569,0.605,1.398,0.063,1.903
		c-0.533,0.497-1.301,0.406-1.863-0.157c-2.402-2.408-4.822-4.798-7.229-7.201c-0.815-0.814-1.61-1.65-2.414-2.476
		c-0.04,0.02-0.08,0.041-0.12,0.061c-0.008,0.15-0.024,0.301-0.024,0.451c0.009,3.694,0.022,7.389,0.028,11.083
		c0,0.274,0,0.562-0.079,0.819c-0.162,0.53-0.778,0.886-1.309,0.807c-0.598-0.088-1.057-0.546-1.077-1.148
		c-0.031-0.927-0.025-1.855-0.029-2.783c-0.021-4.085-0.041-8.17-0.059-12.255c-0.004-0.849,0.475-1.35,1.312-1.355
		c4.931-0.026,9.862-0.05,14.794-0.07c0.82-0.003,1.358,0.411,1.451,1.087c0.085,0.619-0.303,1.212-0.92,1.37
		c-0.186,0.047-0.387,0.044-0.581,0.045C13.427,3.628,9.717,3.645,6.006,3.662C5.845,3.663,5.684,3.662,5.381,3.662z"/>
	<path fill="#ffffff" d="M44.798,3.656c-0.354,0-0.606,0.001-0.859,0c-3.629-0.015-7.257-0.03-10.886-0.047c-0.194-0.001-0.396,0.003-0.581-0.045
		c-0.614-0.158-0.999-0.749-0.919-1.372c0.081-0.625,0.598-1.075,1.303-1.082c1.139-0.011,2.278,0.004,3.417,0.009
		c3.791,0.018,7.582,0.037,11.374,0.053c1.029,0.004,1.468,0.456,1.463,1.498c-0.026,4.833-0.048,9.665-0.076,14.498
		c-0.001,0.241-0.005,0.495-0.077,0.72c-0.175,0.546-0.763,0.905-1.292,0.831c-0.65-0.091-1.102-0.586-1.105-1.277
		c-0.007-1.822,0.012-3.645,0.015-5.467c0.003-2.131,0.001-4.261,0.001-6.464c-0.133,0.104-0.234,0.167-0.317,0.248
		c-3.074,3.047-6.147,6.096-9.218,9.145c-0.092,0.091-0.177,0.19-0.262,0.289c-0.511,0.593-1.221,0.627-1.789,0.085
		c-0.591-0.563-0.583-1.275-0.018-1.832c3.195-3.156,6.383-6.319,9.572-9.481C44.609,3.9,44.662,3.822,44.798,3.656z"/>
	<path fill="#ffffff" d="M3.802,45.083c0.101-0.15,0.18-0.322,0.305-0.447c3.099-3.09,6.202-6.175,9.305-9.261c0.523-0.52,1.276-0.538,1.792-0.041
		c0.492,0.473,0.512,1.223,0.043,1.76c-0.096,0.11-0.206,0.208-0.31,0.311c-3.003,2.979-6.005,5.958-9.01,8.935
		c-0.15,0.148-0.32,0.276-0.48,0.413c0.015,0.042,0.03,0.085,0.045,0.127c0.163,0.009,0.327,0.024,0.49,0.025
		c3.79,0.022,7.581,0.041,11.371,0.064c0.611,0.004,1.057,0.312,1.242,0.838c0.163,0.463,0.045,1.042-0.365,1.32
		c-0.266,0.18-0.622,0.323-0.938,0.323c-4.978,0-9.956-0.023-14.934-0.049c-0.772-0.004-1.277-0.536-1.273-1.306
		c0.025-4.945,0.053-9.891,0.081-14.836c0.005-0.841,0.487-1.394,1.221-1.41c0.738-0.017,1.273,0.558,1.272,1.419
		c-0.005,2.814-0.028,5.629-0.04,8.443c-0.005,1.084-0.001,2.168-0.001,3.252C3.68,45.003,3.741,45.043,3.802,45.083z"/>
	<path fill="#ffffff" d="M44.793,46.725c-0.204-0.155-0.428-0.291-0.608-0.469c-3.031-2.997-6.058-5.998-9.082-9.002
		c-0.719-0.714-0.653-1.462,0.166-2.049c0.495-0.355,1.064-0.29,1.498,0.143c3.167,3.159,6.339,6.315,9.51,9.47
		c0.066,0.066,0.145,0.119,0.307,0.25c0-0.257,0.001-0.425,0-0.592c-0.018-3.563-0.036-7.126-0.053-10.689
		c-0.001-0.228-0.01-0.456,0.005-0.683c0.051-0.747,0.603-1.28,1.289-1.254c0.698,0.026,1.199,0.571,1.204,1.331
		c0.013,2.001,0.015,4.002,0.026,6.003c0.015,2.945,0.033,5.889,0.052,8.834c0.006,0.864-0.479,1.382-1.34,1.386
		c-4.946,0.024-9.892,0.043-14.837,0.059c-0.679,0.002-1.159-0.32-1.338-0.858c-0.166-0.498-0.003-1.109,0.455-1.382
		c0.262-0.156,0.606-0.241,0.915-0.244c3.709-0.035,7.418-0.049,11.128-0.069c0.194-0.001,0.388,0,0.581,0
		C44.71,46.849,44.752,46.787,44.793,46.725z"/>
</g>
</svg>
