<?xml version="1.0" encoding="utf-8"?>
<!-- Generator: Adobe Illustrator 17.0.0, SVG Export Plug-In . SVG Version: 6.00 Build 0)  -->
<!DOCTYPE svg PUBLIC "-//W3C//DTD SVG 1.1//EN" "http://www.w3.org/Graphics/SVG/1.1/DTD/svg11.dtd">
<svg version="1.1" id="Layer_1" xmlns="http://www.w3.org/2000/svg" xmlns:xlink="http://www.w3.org/1999/xlink" x="0px" y="0px"
	 width="50px" height="50px" viewBox="0 0 50 50" enable-background="new 0 0 50 50" xml:space="preserve">
<g>
	<path fill="transparent" d="M22.082,0C31.388,0,40.694,0,50,0c0,17.438,0,34.875,0,52.313c-16.667,0-33.333,0-50,0
		c0-10.319,0-20.639,0-30.958c0.017,0.064,0.042,0.127,0.048,0.191c0.097,1.066,0.214,2.124,0.508,3.161
		c0.333,1.176,0.623,2.364,1.192,3.454c0.304,0.584,0.582,1.183,0.913,1.751c0.343,0.59,0.728,1.157,1.108,1.724
		c0.585,0.874,1.259,1.674,2.029,2.385c0.686,0.633,1.372,1.27,2.103,1.846c0.639,0.503,1.33,0.941,2.018,1.375
		c1.394,0.88,2.899,1.515,4.463,2.012c1.655,0.526,3.35,0.834,5.079,0.944c1.968,0.125,3.914-0.026,5.847-0.434
		c1.898-0.402,3.705-1.056,5.425-1.952c0.322-0.168,0.567-0.284,0.823,0.054c0.025,0.033,0.065,0.054,0.095,0.083
		c0.726,0.703,1.451,1.407,2.178,2.11c0.666,0.644,1.333,1.286,2,1.93c0.703,0.679,1.405,1.358,2.107,2.037
		c0.672,0.649,1.346,1.297,2.017,1.948c0.786,0.762,1.572,1.525,2.356,2.29c0.513,0.5,1.022,1.005,1.535,1.505
		c0.071,0.069,0.159,0.119,0.241,0.179c1.956-1.891,3.903-3.773,5.857-5.662c-0.089-0.095-0.143-0.159-0.203-0.217
		c-0.571-0.548-1.144-1.093-1.714-1.642c-0.698-0.672-1.393-1.346-2.09-2.019c-0.702-0.679-1.404-1.358-2.107-2.037
		c-0.684-0.661-1.369-1.322-2.053-1.984c-0.696-0.673-1.395-1.344-2.088-2.021c-0.591-0.577-1.176-1.161-1.766-1.739
		c-0.147-0.143-0.305-0.274-0.458-0.411c0.045-0.072,0.066-0.108,0.09-0.142c0.434-0.622,0.903-1.222,1.294-1.87
		c0.406-0.672,0.785-1.369,1.088-2.093c0.395-0.944,0.747-1.912,1.037-2.894c0.374-1.266,0.557-2.577,0.618-3.898
		c0.108-2.343-0.061-4.655-0.819-6.895c-0.304-0.899-0.592-1.797-1.014-2.655c-0.607-1.236-1.296-2.409-2.127-3.503
		c-0.62-0.816-1.265-1.605-2.028-2.284c-0.697-0.62-1.391-1.249-2.132-1.813c-0.654-0.498-1.357-0.931-2.06-1.357
		C30.073,2,28.639,1.41,27.153,0.95c-1.269-0.393-2.562-0.668-3.882-0.807C22.874,0.101,22.478,0.048,22.082,0z"/>
	<path fill="#686868" d="M22.082,0c0.396,0.048,0.791,0.101,1.188,0.143c1.321,0.138,2.613,0.414,3.882,0.807
		C28.639,1.41,30.073,2,31.41,2.81c0.703,0.426,1.407,0.86,2.06,1.357c0.74,0.564,1.435,1.192,2.132,1.813
		c0.763,0.68,1.409,1.468,2.028,2.284c0.831,1.094,1.52,2.267,2.127,3.503c0.421,0.858,0.71,1.756,1.014,2.655
		c0.758,2.24,0.927,4.552,0.819,6.895c-0.061,1.321-0.243,2.632-0.618,3.898c-0.29,0.982-0.642,1.95-1.037,2.894
		c-0.303,0.724-0.683,1.421-1.088,2.093c-0.392,0.648-0.86,1.248-1.294,1.87c-0.024,0.034-0.045,0.071-0.09,0.142
		c0.153,0.136,0.311,0.267,0.458,0.411c0.591,0.578,1.175,1.162,1.766,1.739c0.693,0.676,1.392,1.348,2.088,2.021
		c0.684,0.661,1.369,1.322,2.053,1.984c0.702,0.679,1.405,1.358,2.107,2.037c0.696,0.673,1.392,1.347,2.09,2.019
		c0.57,0.549,1.143,1.094,1.714,1.642c0.06,0.058,0.115,0.122,0.203,0.217c-1.955,1.89-3.901,3.771-5.857,5.662
		c-0.082-0.06-0.17-0.111-0.241-0.179c-0.514-0.5-1.022-1.004-1.535-1.505c-0.784-0.765-1.569-1.528-2.356-2.29
		c-0.671-0.651-1.345-1.298-2.017-1.948c-0.703-0.679-1.404-1.358-2.107-2.037c-0.666-0.643-1.334-1.286-2-1.93
		c-0.727-0.703-1.452-1.407-2.178-2.11c-0.03-0.029-0.07-0.05-0.095-0.083c-0.257-0.338-0.501-0.222-0.823-0.054
		c-1.72,0.897-3.528,1.551-5.425,1.952c-1.932,0.409-3.879,0.559-5.847,0.434c-1.729-0.11-3.424-0.418-5.079-0.944
		c-1.564-0.497-3.069-1.132-4.463-2.012c-0.688-0.434-1.379-0.872-2.018-1.375c-0.731-0.576-1.417-1.213-2.103-1.846
		c-0.77-0.71-1.443-1.511-2.029-2.385c-0.38-0.567-0.765-1.134-1.108-1.724c-0.33-0.568-0.608-1.168-0.913-1.751
		c-0.569-1.091-0.859-2.278-1.192-3.454c-0.294-1.037-0.411-2.096-0.508-3.161C0.042,21.481,0.017,21.418,0,21.354
		c0-0.817,0-1.635,0-2.452c0.017-0.081,0.041-0.161,0.05-0.243c0.06-0.532,0.087-1.07,0.182-1.596
		c0.312-1.715,0.737-3.398,1.51-4.969c0.294-0.598,0.586-1.2,0.921-1.775C3.015,9.715,3.408,9.134,3.8,8.555
		C4.378,7.698,5.04,6.91,5.797,6.213C6.501,5.563,7.209,4.913,7.96,4.322c0.625-0.493,1.303-0.92,1.978-1.343
		c1.381-0.867,2.869-1.498,4.416-1.989c1.282-0.407,2.59-0.688,3.926-0.838C18.693,0.106,19.105,0.051,19.517,0
		C20.372,0,21.227,0,22.082,0z M20.252,8.053c-1.542-0.014-3.541,0.487-5.423,1.465c-1.124,0.584-2.134,1.343-3.033,2.241
		c-0.833,0.831-1.547,1.773-2.082,2.823c-0.397,0.78-0.757,1.603-0.979,2.449c-0.575,2.195-0.601,4.4,0.143,6.579
		c0.282,0.827,0.544,1.661,1.049,2.387c0.351,0.505,0.683,1.024,1.046,1.52c0.619,0.846,1.391,1.533,2.222,2.159
		c0.9,0.678,1.875,1.209,2.919,1.622c1.868,0.74,3.799,1.01,5.794,0.842c2.961-0.248,5.527-1.415,7.711-3.446
		c0.792-0.737,1.471-1.587,2.015-2.526c0.409-0.707,0.792-1.451,1.042-2.227c0.865-2.688,0.894-5.377-0.17-8.034
		c-0.297-0.74-0.582-1.483-1.071-2.124c-0.348-0.455-0.674-0.927-1.03-1.375c-0.598-0.751-1.293-1.404-2.093-1.925
		c-0.667-0.435-1.345-0.862-2.055-1.216C24.548,8.418,22.725,8.058,20.252,8.053z"/>
	<path fill="#FFFFFF" d="M19.517,0c-0.412,0.051-0.824,0.106-1.237,0.152c-1.336,0.15-2.644,0.431-3.926,0.838
		c-1.547,0.491-3.035,1.122-4.416,1.989C9.264,3.402,8.585,3.829,7.96,4.322C7.209,4.913,6.501,5.563,5.797,6.213
		C5.04,6.91,4.378,7.698,3.8,8.555c-0.392,0.58-0.785,1.161-1.137,1.765c-0.335,0.575-0.627,1.177-0.921,1.775
		c-0.773,1.571-1.198,3.254-1.51,4.969c-0.096,0.525-0.122,1.064-0.182,1.596C0.041,18.741,0.017,18.821,0,18.902
		C0,12.605,0,6.309,0,0C6.506,0,13.011,0,19.517,0z"/>
	<path fill="#FFFFFF" d="M20.252,8.053c2.473,0.004,4.296,0.365,6.002,1.214c0.71,0.354,1.388,0.781,2.055,1.216
		c0.8,0.521,1.495,1.174,2.093,1.925c0.356,0.448,0.683,0.92,1.03,1.375c0.489,0.64,0.775,1.384,1.071,2.124
		c1.065,2.656,1.035,5.346,0.17,8.034c-0.25,0.776-0.632,1.52-1.042,2.227c-0.543,0.938-1.222,1.789-2.015,2.526
		c-2.183,2.031-4.75,3.198-7.711,3.446c-1.995,0.167-3.926-0.103-5.794-0.842c-1.043-0.413-2.018-0.945-2.919-1.622
		c-0.831-0.625-1.603-1.313-2.222-2.159c-0.363-0.496-0.695-1.015-1.046-1.52c-0.504-0.726-0.767-1.56-1.049-2.387
		c-0.743-2.179-0.718-4.384-0.143-6.579c0.222-0.846,0.582-1.669,0.979-2.449c0.535-1.051,1.249-1.992,2.082-2.823
		c0.899-0.897,1.908-1.657,3.033-2.241C16.711,8.54,18.71,8.039,20.252,8.053z"/>
</g>
</svg>
